<svg width="45" height="40" viewBox="0 0 45 40" fill="none" xmlns="http://www.w3.org/2000/svg">
<mask id="mask0_1432_10403" style="mask-type:alpha" maskUnits="userSpaceOnUse" x="0" y="0" width="45" height="40">
<path d="M0 0H45V40H0V0Z" fill="black"/>
</mask>
<g mask="url(#mask0_1432_10403)">
<path d="M19.7115 22.245C19.7115 19.1665 20.7989 16.5658 22.9736 14.4428C25.1478 12.3193 27.7913 11.2575 30.9043 11.2575V13.617C28.4549 13.617 26.3777 14.4482 24.6726 16.1107C22.9676 17.7737 22.115 19.8184 22.115 22.245H19.7115ZM24.4156 22.245C24.4156 20.4698 25.0448 18.9586 26.3033 17.7114C27.5623 16.4647 29.0959 15.8413 30.9043 15.8413V18.2007C29.7595 18.2007 28.7867 18.5938 27.9858 19.38C27.1849 20.1663 26.7845 21.1212 26.7845 22.245H24.4156ZM13.1544 11.4598C12.3761 11.4598 11.718 11.1958 11.1802 10.6679C10.6424 10.14 10.3735 9.49398 10.3735 8.72988C10.3735 7.96632 10.6424 7.32059 11.1802 6.79268C11.718 6.26423 12.3761 6 13.1544 6C13.9097 6 14.562 6.26962 15.1113 6.80885C15.6607 7.34809 15.9353 7.98843 15.9353 8.72988C15.9353 9.49398 15.6607 10.14 15.1113 10.6679C14.562 11.1958 13.9097 11.4598 13.1544 11.4598ZM9 18.3018V15.0664C9 14.5272 9.19473 14.0664 9.58419 13.6841C9.9731 13.3023 10.4422 13.1114 10.9915 13.1114H15.3173C16.3473 13.1114 17.2342 12.7914 17.9779 12.1513C18.7217 11.5107 19.1966 10.7073 19.4026 9.74095H22.0467C21.8632 11.0669 21.3424 12.2298 20.4844 13.2295C19.6258 14.2293 18.5673 14.9314 17.3089 15.3358V18.3018H9ZM33.1356 26.9291C32.3803 26.9291 31.728 26.6651 31.1787 26.1372C30.6293 25.6093 30.3547 24.9633 30.3547 24.1992C30.3547 23.4577 30.6293 22.8174 31.1787 22.2782C31.728 21.7389 32.3803 21.4693 33.1356 21.4693C33.9139 21.4693 34.5778 21.7389 35.1271 22.2782C35.6764 22.8174 35.9511 23.4577 35.9511 24.1992C35.9511 24.9633 35.6764 25.6093 35.1271 26.1372C34.5778 26.6651 33.9139 26.9291 33.1356 26.9291ZM28.9811 33.7712V30.8051C27.7227 30.4007 26.6642 29.6986 25.8056 28.6988C24.9476 27.6991 24.4268 26.5362 24.2433 25.2103H26.8874C27.0934 26.1992 27.5683 27.0081 28.3121 27.6368C29.0558 28.2661 29.9427 28.5808 30.9727 28.5808H35.2985C35.8478 28.5808 36.3169 28.7716 36.7058 29.1534C37.0953 29.5357 37.29 29.9965 37.29 30.5357V33.7712H28.9811Z" fill="#1C1B1F"/>
</g>
</svg>
