<svg width="44" height="40" viewBox="0 0 44 40" fill="none" xmlns="http://www.w3.org/2000/svg">
<mask id="mask0_1432_10367" style="mask-type:alpha" maskUnits="userSpaceOnUse" x="0" y="0" width="44" height="40">
<path d="M0 0H44V40H0V0Z" fill="black"/>
</mask>
<g mask="url(#mask0_1432_10367)">
<path d="M15.7391 3C16.9565 3 18.1111 3.30772 19.2028 3.92315C20.2945 4.53916 21.2269 5.39156 22 6.48037C22.7731 5.39156 23.7055 4.53916 24.7972 3.92315C25.8889 3.30772 27.0435 3 28.2609 3C30.3863 3 32.1932 3.9115 33.6814 5.73451C35.1692 7.55809 35.913 9.77207 35.913 12.3764C35.913 13.3237 35.802 14.2827 35.5798 15.2533C35.3577 16.2239 35.0242 17.1829 34.5795 18.1302C34.3286 17.775 34.0485 17.4733 33.7391 17.2249C33.4298 16.976 33.0917 16.7805 32.7249 16.6385C33.0532 15.9043 33.2995 15.182 33.4637 14.4717C33.6278 13.7613 33.7099 13.0629 33.7099 12.3764C33.7099 10.5057 33.1833 8.92534 32.1301 7.63537C31.0773 6.34483 29.7876 5.69956 28.2609 5.69956C27.082 5.69956 26.0095 6.1019 25.0435 6.90657C24.0774 7.7118 23.063 8.89579 22 10.4585C20.937 8.89579 19.9226 7.7118 18.9565 6.90657C17.9905 6.1019 16.918 5.69956 15.7391 5.69956C14.2124 5.69956 12.9227 6.34483 11.8699 7.63537C10.8167 8.92534 10.2901 10.5057 10.2901 12.3764C10.2901 13.0629 10.3722 13.7613 10.5363 14.4717C10.7005 15.182 10.9468 15.9043 11.2751 16.6385C10.9083 16.7805 10.5702 16.9817 10.2609 17.242C9.95154 17.5028 9.67142 17.8108 9.42052 18.166C8.97577 17.1948 8.64232 16.2239 8.42017 15.2533C8.19803 14.2827 8.08696 13.3237 8.08696 12.3764C8.08696 9.77207 8.83084 7.55809 10.3186 5.73451C11.8068 3.9115 13.6137 3 15.7391 3ZM9.10122 30.5608C8.79235 30.5608 8.53148 30.4306 8.31861 30.1704C8.1062 29.9101 8 29.5905 8 29.2114V28.4298C8 27.4353 8.41554 26.6363 9.24661 26.0328C10.0772 25.4287 11.1689 25.1267 12.5217 25.1267C12.7341 25.1267 12.937 25.1327 13.1304 25.1446C13.3238 25.1565 13.517 25.1744 13.7099 25.1983C13.4975 25.6478 13.3431 26.1155 13.2466 26.6014C13.1497 27.0867 13.1012 27.6134 13.1012 28.1817V30.5608H9.10122ZM16.0577 30.5608C15.7489 30.5608 15.488 30.4306 15.2751 30.1704C15.0627 29.9101 14.9565 29.5905 14.9565 29.2114V28.1817C14.9565 26.5951 15.6039 25.3165 16.8988 24.3459C18.1932 23.3747 19.8936 22.8891 22 22.8891C24.1064 22.8891 25.8068 23.3747 27.1012 24.3459C28.3961 25.3165 29.0435 26.5951 29.0435 28.1817V29.2114C29.0435 29.5905 28.9373 29.9101 28.7249 30.1704C28.512 30.4306 28.2511 30.5608 27.9423 30.5608H16.0577ZM30.8988 30.5608V28.1817C30.8988 27.6367 30.8503 27.1156 30.7534 26.6184C30.6569 26.1212 30.5025 25.6478 30.2901 25.1983C30.483 25.1744 30.6762 25.1565 30.8696 25.1446C31.063 25.1327 31.2659 25.1267 31.4783 25.1267C32.8311 25.1267 33.9228 25.4287 34.7534 26.0328C35.5845 26.6363 36 27.4353 36 28.4298V29.2114C36 29.5905 35.8938 29.9101 35.6814 30.1704C35.4685 30.4306 35.2077 30.5608 34.8988 30.5608H30.8988ZM22 25.4464C20.6667 25.4464 19.5555 25.6833 18.6664 26.1573C17.7779 26.6306 17.2851 27.2105 17.1882 27.897V28.0036H26.8118V27.897C26.7149 27.1867 26.2221 26.6008 25.3336 26.1394C24.4445 25.6774 23.3333 25.4464 22 25.4464ZM12.5217 23.9546C11.9226 23.9546 11.4106 23.6944 10.9857 23.1738C10.5605 22.6527 10.3478 22.0251 10.3478 21.2909C10.3478 20.5572 10.5605 19.9299 10.9857 19.4088C11.4106 18.8877 11.9226 18.6271 12.5217 18.6271C13.1399 18.6271 13.6617 18.8877 14.087 19.4088C14.5122 19.9299 14.7249 20.5572 14.7249 21.2909C14.7249 22.0251 14.5122 22.6527 14.087 23.1738C13.6617 23.6944 13.1399 23.9546 12.5217 23.9546ZM31.4783 23.9546C30.8601 23.9546 30.3383 23.6944 29.913 23.1738C29.4878 22.6527 29.2751 22.0251 29.2751 21.2909C29.2751 20.5572 29.4878 19.9299 29.913 19.4088C30.3383 18.8877 30.8601 18.6271 31.4783 18.6271C32.0774 18.6271 32.5894 18.8877 33.0143 19.4088C33.4395 19.9299 33.6522 20.5572 33.6522 21.2909C33.6522 22.0251 33.4395 22.6527 33.0143 23.1738C32.5894 23.6944 32.0774 23.9546 31.4783 23.9546ZM22 21.8236C21.0145 21.8236 20.1739 21.3974 19.4783 20.545C18.7826 19.6926 18.4348 18.6626 18.4348 17.4551C18.4348 16.2242 18.7826 15.1826 19.4783 14.3302C20.1739 13.4777 21.0145 13.0515 22 13.0515C22.9855 13.0515 23.8261 13.4777 24.5217 14.3302C25.2174 15.1826 25.5652 16.2242 25.5652 17.4551C25.5652 18.6626 25.2174 19.6926 24.5217 20.545C23.8261 21.3974 22.9855 21.8236 22 21.8236ZM22 15.6088C21.5747 15.6088 21.222 15.7863 20.9419 16.1415C20.6618 16.4967 20.5217 16.9345 20.5217 17.4551C20.5217 17.9523 20.6618 18.3785 20.9419 18.7337C21.222 19.0888 21.5747 19.2664 22 19.2664C22.4253 19.2664 22.778 19.0888 23.0581 18.7337C23.3382 18.3785 23.4783 17.9523 23.4783 17.4551C23.4783 16.9345 23.3382 16.4967 23.0581 16.1415C22.778 15.7863 22.4253 15.6088 22 15.6088Z" fill="#1C1B1F"/>
</g>
</svg>
