<svg width="45" height="40" viewBox="0 0 45 40" fill="none" xmlns="http://www.w3.org/2000/svg">
<mask id="mask0_1432_10391" style="mask-type:alpha" maskUnits="userSpaceOnUse" x="0" y="0" width="45" height="40">
<rect width="44.918" height="40" fill="black"/>
</mask>
<g mask="url(#mask0_1432_10391)">
<path d="M12.5891 30.1859C11.8849 30.1859 11.2775 29.9631 10.7668 29.5177C10.2556 29.0718 10 28.5419 10 27.9282V10.2487C10 9.63449 10.2556 9.10465 10.7668 8.65919C11.2775 8.21326 11.8849 7.99029 12.5891 7.99029H14.4285V7.0989C14.4285 6.80177 14.5533 6.54434 14.8029 6.3266C15.0531 6.10887 15.3485 6 15.6891 6C16.0521 6 16.3587 6.10887 16.6088 6.3266C16.8584 6.54434 16.9832 6.80177 16.9832 7.0989V7.99029H28.0197V7.0989C28.0197 6.80177 28.1445 6.54434 28.3942 6.3266C28.6443 6.10887 28.9397 6 29.2803 6C29.6433 6 29.9499 6.10887 30.2001 6.3266C30.4497 6.54434 30.5745 6.80177 30.5745 7.0989V7.99029H32.4139C33.1181 7.99029 33.7255 8.21326 34.2361 8.65919C34.7474 9.10465 35.003 9.63449 35.003 10.2487V18.6278H32.4139V15.5079H12.5891V27.9282H22.9446V30.1859H12.5891ZM12.5891 13.5469H32.4139V10.2487H12.5891V13.5469ZM36.638 23.9462L33.8446 21.5102L34.8321 20.648C35.0823 20.4502 35.3888 20.3514 35.7518 20.3514C36.1153 20.3514 36.4107 20.4502 36.638 20.648L37.6256 21.5102C37.8752 21.7279 38 21.9953 38 22.3124C38 22.629 37.8752 22.8865 37.6256 23.0847L36.638 23.9462ZM25.1928 30.9289V29.5327C25.1928 29.3938 25.2268 29.255 25.2949 29.1162C25.3631 28.9779 25.4653 28.8493 25.6015 28.7304L32.5504 22.639L35.3431 25.0757L28.3942 31.1664C28.2579 31.2853 28.1105 31.3696 27.9519 31.4196C27.7927 31.469 27.6336 31.4937 27.4745 31.4937H25.8394C25.6808 31.4937 25.5334 31.439 25.3971 31.3297C25.2609 31.2208 25.1928 31.0872 25.1928 30.9289Z" fill="#1C1B1F"/>
</g>
</svg>
