<svg width="42" height="38" viewBox="0 0 42 38" fill="none" xmlns="http://www.w3.org/2000/svg">
<mask id="mask0_1432_10361" style="mask-type:alpha" maskUnits="userSpaceOnUse" x="0" y="0" width="42" height="38">
<rect width="41.087" height="38" fill="black"/>
</mask>
<g mask="url(#mask0_1432_10361)">
<path d="M8.94447 27.7875H14.636V18.9218H24.7373V27.7875H30.4288V14.3647L19.6867 7.67037L8.94447 14.3997V27.7875ZM8.94447 30.4937C8.05973 30.4937 7.29619 30.2265 6.65387 29.6922C6.01223 29.1584 5.69141 28.5235 5.69141 27.7875V14.3647C5.69141 13.9374 5.80542 13.5338 6.03346 13.1538C6.26217 12.7738 6.59053 12.4654 7.01851 12.2284L17.7176 5.53407C18.0319 5.34437 18.353 5.20793 18.681 5.12476C19.0091 5.04159 19.3443 5 19.6867 5C20.029 5 20.3642 5.04159 20.6923 5.12476C21.0203 5.20793 21.3414 5.34437 21.6557 5.53407L32.3548 12.2284C32.7828 12.4654 33.1111 12.7798 33.3398 13.1718C33.5679 13.5631 33.6819 13.9608 33.6819 14.3647V27.7875C33.6819 28.5235 33.3611 29.1584 32.7194 29.6922C32.0771 30.2265 31.3136 30.4937 30.4288 30.4937H21.6126V21.5213H17.7607V30.4937H8.94447Z" fill="#1C1B1F"/>
</g>
</svg>
