<svg width="29" height="26" viewBox="0 0 29 26" fill="none" xmlns="http://www.w3.org/2000/svg">
<path d="M0 6.43848V0.395142H6.77495C6.77495 2.06227 6.11303 3.48627 4.78919 4.66716C3.46535 5.84804 1.86895 6.43848 0 6.43848ZM1.44096 15.8511C1.0516 15.8972 0.71425 15.7988 0.428924 15.556C0.142974 15.3126 0 15.0172 0 14.6699C0 14.3226 0.136433 14.0217 0.4093 13.7672C0.681544 13.5127 1.02543 13.3621 1.44096 13.3154C4.89354 13.0147 7.84617 11.7702 10.2989 9.58185C12.7522 7.39402 14.1473 4.76024 14.4844 1.6805C14.5367 1.30984 14.699 1.00309 14.9712 0.760242C15.2441 0.516842 15.588 0.395142 16.0029 0.395142C16.3923 0.395142 16.7234 0.522677 16.9962 0.777747C17.2685 1.03226 17.3788 1.33318 17.327 1.6805C16.9894 5.47766 15.3217 8.71355 12.3239 11.3882C9.32544 14.0623 5.69781 15.5499 1.44096 15.8511ZM1.44096 11.0931C1.0516 11.1392 0.71425 11.0464 0.428924 10.8147C0.142974 10.5835 0 10.2826 0 9.91194C0 9.58796 0.136433 9.29288 0.4093 9.0267C0.681544 8.75995 1.01235 8.59185 1.40171 8.52239C3.40087 8.26787 5.11407 7.50377 6.54133 6.23009C7.96921 4.95696 8.82581 3.42876 9.11114 1.64549C9.18901 1.29817 9.37715 1.00309 9.67556 0.760242C9.97459 0.516842 10.3057 0.395142 10.6689 0.395142C11.0844 0.395142 11.4218 0.522677 11.6809 0.777747C11.9407 1.03226 12.0448 1.33318 11.9931 1.6805C11.6816 4.15785 10.5393 6.27649 8.56634 8.03642C6.59335 9.79635 4.21822 10.8152 1.44096 11.0931ZM12.5771 25.8889C12.1877 25.8889 11.8566 25.7613 11.5838 25.5063C11.3115 25.2517 11.2012 24.9508 11.253 24.6035C11.5906 20.8063 13.2583 17.5704 16.2561 14.8958C19.2546 12.2217 22.8822 10.7341 27.139 10.4329C27.5284 10.3868 27.8657 10.4852 28.1511 10.728C28.437 10.9714 28.58 11.2782 28.58 11.6483C28.58 11.9728 28.4436 12.2623 28.1707 12.5168C27.8985 12.7713 27.5546 12.9219 27.139 12.9686C23.6865 13.2693 20.7338 14.5138 18.2811 16.7022C15.8278 18.89 14.4327 21.5238 14.0956 24.6035C14.0433 24.9742 13.881 25.2809 13.6088 25.5238C13.3359 25.7672 12.992 25.8889 12.5771 25.8889ZM21.8051 25.8889C21.8051 24.2217 22.467 22.7977 23.7908 21.6168C25.1147 20.436 26.711 19.8455 28.58 19.8455V25.8889H21.8051ZM17.9111 25.8889C17.4956 25.8889 17.1582 25.7613 16.8991 25.5063C16.6393 25.2517 16.5352 24.9508 16.5869 24.6035C16.8984 22.1262 18.0407 20.0075 20.0137 18.2476C21.9867 16.4876 24.3618 15.4688 27.139 15.1909C27.5284 15.1448 27.8657 15.2376 28.1511 15.4693C28.437 15.7005 28.58 16.0014 28.58 16.3721C28.58 16.696 28.4436 16.9914 28.1707 17.2581C27.8985 17.5243 27.5676 17.6921 27.1783 17.7616C25.1791 18.0161 23.4659 18.7802 22.0387 20.0539C20.6108 21.327 19.7542 22.8552 19.4689 24.6385C19.391 24.9858 19.2028 25.2809 18.9044 25.5238C18.6054 25.7672 18.2743 25.8889 17.9111 25.8889Z" fill="#1C1B1F"/>
</svg>
