<svg width="43" height="39" viewBox="0 0 43 39" fill="none" xmlns="http://www.w3.org/2000/svg">
<mask id="mask0_1432_10397" style="mask-type:alpha" maskUnits="userSpaceOnUse" x="0" y="0" width="43" height="39">
<rect width="43" height="39" fill="black"/>
</mask>
<g mask="url(#mask0_1432_10397)">
<path d="M11.8609 7.43374V16.2101V16.1463V28.6378V7.43374ZM16.5656 20.182H21.3083C21.6094 19.7546 21.9545 19.3595 22.3435 18.9967C22.7326 18.6338 23.1529 18.2923 23.6046 17.972H16.5656C16.1892 17.972 15.8758 18.0786 15.6252 18.2918C15.3741 18.5055 15.2485 18.7617 15.2485 19.0605C15.2485 19.3808 15.3741 19.6478 15.6252 19.8615C15.8758 20.0752 16.1892 20.182 16.5656 20.182ZM16.5656 25.5307H19.8782C19.8283 25.1679 19.8096 24.7994 19.8222 24.4253C19.8343 24.0517 19.8656 23.6727 19.9162 23.2884H16.5656C16.1892 23.2884 15.8758 23.3952 15.6252 23.6089C15.3741 23.8226 15.2485 24.0896 15.2485 24.4099C15.2485 24.7302 15.3741 24.997 15.6252 25.2102C15.8758 25.4239 16.1892 25.5307 16.5656 25.5307ZM11.8609 31.0716C11.0828 31.0716 10.4116 30.8315 9.84735 30.3513C9.28245 29.8706 9 29.2994 9 28.6378V7.43374C9 6.77213 9.28245 6.20098 9.84735 5.72028C10.4116 5.24009 11.0828 5 11.8609 5H23.7555C24.1566 5 24.533 5.06406 24.8847 5.19218C25.2358 5.3203 25.5369 5.50171 25.788 5.73642L32.7511 11.6616C33.0269 11.8753 33.2401 12.1316 33.3907 12.4304C33.5412 12.7296 33.6165 13.0499 33.6165 13.3912V16.8189C33.1648 16.6478 32.7008 16.5143 32.2244 16.4184C31.7475 16.3221 31.2582 16.2526 30.7565 16.2101V13.5519H24.9217C24.5206 13.5519 24.1818 13.4343 23.9054 13.1991C23.6296 12.9644 23.4917 12.6761 23.4917 12.3343V7.43374H11.8609V28.6378H21.1204C21.4215 29.1073 21.7729 29.5449 22.1746 29.9508C22.5757 30.3567 23.0147 30.7303 23.4917 31.0716H11.8609ZM29.7023 18.2603C31.7601 18.2603 33.5042 18.8742 34.9345 20.1021C36.3648 21.3295 37.08 22.8079 37.08 24.5375C37.08 26.2887 36.3648 27.7728 34.9345 28.9899C33.5042 30.207 31.7601 30.8156 29.7023 30.8156C27.6697 30.8156 25.932 30.207 24.489 28.9899C23.046 27.7728 22.3245 26.2887 22.3245 24.5375C22.3245 22.8079 23.046 21.3295 24.489 20.1021C25.932 18.8742 27.6697 18.2603 29.7023 18.2603ZM29.7402 28.6694C30.0413 28.6694 30.2985 28.5786 30.5117 28.3972C30.7249 28.2158 30.8315 27.9862 30.8315 27.7085C30.8315 27.4522 30.7249 27.2334 30.5117 27.052C30.2985 26.8706 30.0413 26.7799 29.7402 26.7799C29.4391 26.7799 29.1816 26.8706 28.9678 27.052C28.7546 27.2334 28.6481 27.4522 28.6481 27.7085C28.6481 27.9862 28.7546 28.2158 28.9678 28.3972C29.1816 28.5786 29.4391 28.6694 29.7402 28.6694ZM29.7402 20.2135C29.2379 20.2135 28.761 20.3258 28.3093 20.5502C27.8576 20.7742 27.4812 21.0571 27.1801 21.3989C27.0801 21.5695 27.0678 21.7351 27.1431 21.8955C27.2183 22.0554 27.3689 22.1781 27.5947 22.2637C27.77 22.3278 27.9455 22.3278 28.1214 22.2637C28.2972 22.1996 28.4605 22.1035 28.611 21.9754C28.7363 21.8048 28.8992 21.6767 29.0997 21.5911C29.3009 21.5055 29.5144 21.4627 29.7402 21.4627C30.066 21.4627 30.3608 21.5588 30.6246 21.751C30.8878 21.9431 31.0194 22.1889 31.0194 22.4882C31.0194 22.7229 30.9378 22.9256 30.7746 23.0962C30.612 23.2674 30.4301 23.4383 30.2289 23.6089C30.0284 23.7371 29.8339 23.8759 29.6454 24.0256C29.4575 24.1747 29.3009 24.3454 29.1756 24.5375C29.075 24.6657 29.0121 24.8099 28.9868 24.9703C28.9621 25.1302 28.9498 25.285 28.9498 25.4346C28.9498 25.6483 29.0251 25.8405 29.1756 26.0112C29.3262 26.1818 29.5144 26.2671 29.7402 26.2671C29.9661 26.2671 30.1543 26.2031 30.3048 26.075C30.4554 25.9468 30.5306 25.7867 30.5306 25.5945C30.5306 25.3383 30.612 25.1089 30.7746 24.9065C30.9378 24.7036 31.1199 24.5165 31.3211 24.3454C31.6722 24.1106 31.9733 23.8331 32.2244 23.5128C32.475 23.1926 32.6002 22.851 32.6002 22.4882C32.6002 21.8476 32.3181 21.3084 31.7538 20.8708C31.1889 20.4326 30.5177 20.2135 29.7402 20.2135Z" fill="#1C1B1F"/>
</g>
</svg>
